<?xml version="1.0" encoding="utf-8"?>
<!-- Generator: Adobe Illustrator 24.3.0, SVG Export Plug-In . SVG Version: 6.00 Build 0)  -->
<svg version="1.1" id="Warstwa_1" xmlns="http://www.w3.org/2000/svg" xmlns:xlink="http://www.w3.org/1999/xlink" x="0px" y="0px"
	 viewBox="0 0 1835 462" style="enable-background:new 0 0 1835 462;" xml:space="preserve">
<style type="text/css">
	.st0{fill:#68D8E7;}
	.st1{fill:#FFFFFF;}
</style>
<g>
	<path class="st0" d="M161.55,356.15V214.69c0-20.06-4.77-34.61-14.3-43.64c-9.53-9.03-21.49-13.54-35.87-13.54
		c-14.72,0-26.76,4.44-36.12,13.29c-9.37,8.86-14.05,23.5-14.05,43.89v141.46H1.53V214.69c0-19.39,2.67-36.19,8.03-50.41
		c5.35-14.21,12.62-25.91,21.82-35.11c9.19-9.19,20.14-16.05,32.86-20.57c12.71-4.51,26.41-6.77,41.13-6.77
		c18.72,0,35.36,3.76,49.91,11.29c14.55,7.52,26.34,18.31,35.36,32.35h1c8.69-14.05,20.32-24.83,34.86-32.35
		c14.55-7.52,31.35-11.29,50.41-11.29c14.71,0,28.42,2.26,41.13,6.77c12.71,4.51,23.65,11.37,32.86,20.57
		c9.19,9.2,16.47,20.9,21.82,35.11c5.35,14.22,8.03,31.02,8.03,50.41v141.46h-59.69V214.69c0-20.39-4.69-35.03-14.05-43.89
		c-9.37-8.86-21.41-13.29-36.12-13.29c-14.38,0-26.26,4.51-35.62,13.54c-9.37,9.03-14.05,23.58-14.05,43.64v141.46H161.55z"/>
	<path class="st0" d="M552.3,297.47c-19.05,0-34.28-5.69-45.64-17.05c-11.38-11.38-17.05-28.93-17.05-52.68V101.82h-59.7v125.91
		c0,22.08,3.09,41.06,9.3,56.93c6.17,15.89,14.46,28.84,24.83,38.87c10.35,10.03,22.23,17.48,35.61,22.33
		c13.38,4.84,27.25,7.26,41.64,7.26c9.14,0,17.67-1.09,25.56-3.28V332.7l0.12-36.6C562.34,297.01,557.46,297.47,552.3,297.47z
		 M615.01,101.82v91.06h0.48l-0.48,139.99v9.74c0,24.08-5.52,41.38-16.56,51.91c-11.04,10.54-26.76,15.81-47.14,15.81
		c-30.11,0-50-11.21-59.7-33.61h-59.69c3.33,14.71,8.78,27.42,16.3,38.12c7.52,10.7,16.56,19.56,27.08,26.59
		c10.54,7.02,22.25,12.2,35.11,15.55c12.87,3.33,26.5,5.02,40.89,5.02c17.05,0,33.1-2.26,48.15-6.78
		c15.05-4.51,28.18-11.62,39.37-21.31c11.21-9.71,19.99-22.16,26.35-37.37c6.34-15.22,9.53-33.7,9.53-55.43V101.82H615.01z"/>
	<path class="st1" d="M865.81,179.58c-0.67-7.69-4.35-13.87-11.04-18.56c-6.69-4.68-15.89-7.02-27.59-7.02
		c-13.38,0-23.33,2.68-29.85,8.03c-6.52,5.35-9.78,12.21-9.78,20.57c0,7.36,3.51,12.54,10.53,15.55c7.02,3.01,15.88,5.35,26.59,7.02
		c10.7,1.68,22.15,3.35,34.36,5.02c12.2,1.68,23.65,5.02,34.36,10.03c10.7,5.02,19.56,12.21,26.59,21.57
		c7.02,9.37,10.53,22.57,10.53,39.63c0,11.71-2.43,22.57-7.27,32.61c-4.85,10.03-11.79,18.65-20.82,25.83
		c-9.03,7.2-19.99,12.79-32.86,16.8c-12.88,4.01-27.17,6.02-42.89,6.02c-15.72,0-29.93-2.01-42.64-6.02
		c-12.71-4.01-23.58-9.53-32.61-16.55c-9.03-7.02-16.05-15.38-21.07-25.08c-5.02-9.69-7.7-20.39-8.03-32.1h60.19
		c0.33,8.36,4.09,15.05,11.29,20.06c7.19,5.02,17.81,7.52,31.85,7.52c16.05,0,27.5-2.67,34.36-8.03
		c6.85-5.35,10.28-12.37,10.28-21.07c0-7.35-3.51-12.45-10.53-15.3c-7.02-2.84-15.89-5.02-26.59-6.52
		c-10.71-1.51-22.16-3.09-34.36-4.77c-12.21-1.67-23.66-4.93-34.36-9.78c-10.71-4.84-19.56-12.12-26.59-21.82
		c-7.02-9.7-10.53-23.24-10.53-40.63c0-11.7,2.34-22.49,7.02-32.35c4.68-9.86,11.29-18.39,19.81-25.58
		c8.53-7.19,18.89-12.79,31.1-16.81c12.2-4.01,25.83-6.02,40.88-6.02s28.59,2.01,40.63,6.02c12.04,4.01,22.32,9.53,30.85,16.55
		c8.53,7.02,15.13,15.22,19.81,24.58c4.68,9.37,7.19,19.56,7.53,30.6H865.81z"/>
	<path class="st1" d="M1037.87,356.15h-59.69V0h59.69v141.46h1c7.35-12.04,17.22-21.65,29.6-28.84
		c12.37-7.19,26.75-10.78,43.14-10.78c14.38,0,28.26,2.43,41.63,7.27c13.37,4.85,25.25,12.29,35.62,22.32
		c10.36,10.03,18.64,23,24.83,38.88c6.18,15.89,9.28,34.86,9.28,56.93v128.92h-59.69V227.24c0-23.74-5.69-41.3-17.06-52.67
		c-11.37-11.37-26.59-17.06-45.65-17.06c-18.4,0-33.45,5.85-45.15,17.56c-11.71,11.71-17.56,29.09-17.56,52.17V356.15z"/>
	<path class="st1" d="M1528.95,232.25c0,18.73-3.26,36.12-9.78,52.17c-6.52,16.05-15.72,29.85-27.59,41.38
		c-11.88,11.54-26.01,20.57-42.39,27.09c-16.39,6.52-34.28,9.78-53.67,9.78c-19.74,0-37.71-3.26-53.92-9.78
		c-16.22-6.52-30.27-15.55-42.14-27.09c-11.88-11.54-21.07-25.33-27.59-41.38c-6.52-16.05-9.78-33.44-9.78-52.17
		c0-18.72,3.26-36.12,9.78-52.17c6.52-16.05,15.71-29.85,27.59-41.38c11.87-11.54,25.91-20.57,42.14-27.09
		c16.22-6.52,34.19-9.78,53.92-9.78c19.39,0,37.28,3.26,53.67,9.78c16.38,6.52,30.51,15.55,42.39,27.09
		c11.87,11.54,21.07,25.33,27.59,41.38S1528.95,213.53,1528.95,232.25z M1395.52,306.99c22.07,0,39.71-6.94,52.92-20.82
		c13.21-13.87,19.81-31.85,19.81-53.92s-6.61-40.04-19.81-53.92c-13.22-13.87-30.85-20.82-52.92-20.82s-39.8,6.94-53.17,20.82
		c-13.38,13.88-20.07,31.85-20.07,53.92s6.69,40.05,20.07,53.92C1355.72,300.06,1373.45,306.99,1395.52,306.99z"/>
	<path class="st1" d="M1568.07,234.26c0-20.06,3.26-38.2,9.78-54.43c6.52-16.22,15.55-30.1,27.09-41.63
		c11.54-11.54,25.41-20.48,41.63-26.84c16.22-6.35,34.19-9.53,53.92-9.53c19.39,0,37.28,3.26,53.67,9.78
		c16.38,6.52,30.51,15.55,42.39,27.09c11.87,11.54,21.07,25.33,27.59,41.38s9.78,33.44,9.78,52.17c0,22.07-3.6,41.22-10.78,57.44
		c-7.2,16.22-16.55,29.77-28.09,40.63c-11.54,10.87-24.67,18.98-39.38,24.33c-14.72,5.35-29.43,8.03-44.14,8.03
		c-18.73,0-35.2-3.68-49.41-11.04c-14.22-7.35-25.33-17.38-33.36-30.1h-1v140.45h-59.69V234.26z M1700.5,157.51
		c-22.07,0-39.71,6.94-52.92,20.82c-13.21,13.88-19.81,31.85-19.81,53.92s6.6,40.05,19.81,53.92
		c13.21,13.88,30.85,20.82,52.92,20.82s39.79-6.94,53.17-20.82c13.37-13.87,20.07-31.85,20.07-53.92s-6.69-40.04-20.07-53.92
		C1740.3,164.45,1722.57,157.51,1700.5,157.51z"/>
</g>
</svg>
